<?xml version="1.0" encoding="utf-8"?>
<!-- Generator: Adobe Illustrator 19.2.0, SVG Export Plug-In . SVG Version: 6.00 Build 0)  -->
<svg version="1.1" id="Layer_1" xmlns="http://www.w3.org/2000/svg" xmlns:xlink="http://www.w3.org/1999/xlink" x="0px" y="0px"
	 viewBox="0 0 183.834 40.47" style="enable-background:new 0 0 183.834 40.47;" xml:space="preserve">
<style type="text/css">
	.st0{fill:#F8E4D4;}
	.st1{fill:#EEEEEE;}
	.st2{fill:#659293;}
	.st3{opacity:0.4;fill:#6D6D6D;}
	.st4{fill:#C2C2C2;}
	.st5{fill:#484748;}
	.st6{fill:#D85C4C;}
	.st7{fill:#CD4E3E;}
	.st8{fill:#DF7A66;}
	.st9{fill:none;stroke:#484748;stroke-linecap:round;stroke-linejoin:round;stroke-miterlimit:10;}
	.st10{fill:#C9CACC;}
	.st11{fill:#808285;}
	.st12{fill:#E2CDB7;}
	.st13{fill:#414141;}
	.st14{fill:none;}
	.st15{fill:#666666;}
	.st16{fill:#FFC842;}
	.st17{fill:#606161;}
</style>
<g>
	<path class="st0" d="M0.713,20.235c0,3.567,0.962,6.912,2.639,9.793V10.442C1.675,13.323,0.713,16.669,0.713,20.235z"/>
	<path class="st1" d="M20.235,39.757c10.764,0,19.522-8.757,19.522-19.522S30.999,0.713,20.235,0.713
		c-7.198,0-13.497,3.916-16.882,9.729v19.585C6.738,35.841,13.037,39.757,20.235,39.757z"/>
	<path class="st2" d="M4.209,12.472v0.285h34.058c-0.04-0.096-0.081-0.191-0.122-0.285H4.209z"/>
	<path class="st2" d="M39.755,20.069H4.209v0.285h35.547c0-0.04,0.002-0.079,0.002-0.119C39.757,20.179,39.755,20.124,39.755,20.069
		z"/>
	<path class="st2" d="M4.209,27.666v0.285h33.957c0.041-0.095,0.081-0.19,0.12-0.285H4.209z"/>
	<path class="st2" d="M32.329,35.548c0.119-0.094,0.236-0.189,0.352-0.285H7.789c0.117,0.097,0.236,0.191,0.355,0.285H32.329z"/>
	<path class="st3" d="M20.718,39.75l10.97-10.804l-0.005-0.005l5.447-5.468l-7.339,3.546l-0.002-0.002L17.11,39.505
		c1.018,0.165,2.062,0.251,3.125,0.251C20.397,39.757,20.558,39.754,20.718,39.75z"/>
	<path class="st4" d="M6.253,6.627c0.183,0.208,0.451,0.34,0.749,0.34c0.552,0,0.999-0.447,0.999-0.999
		c0-0.272-0.109-0.518-0.285-0.698C7.206,5.698,6.717,6.15,6.253,6.627z"/>
	<path class="st4" d="M7.003,33.503c-0.298,0-0.564,0.131-0.747,0.337c0.464,0.477,0.95,0.932,1.46,1.359
		c0.176-0.18,0.285-0.426,0.285-0.698C8.001,33.95,7.554,33.503,7.003,33.503z"/>
	<path class="st5" d="M3.353,9.444v0.999c-0.049,0.084-0.095,0.17-0.143,0.254v19.077c0.048,0.085,0.094,0.17,0.143,0.254v0.856
		c0.079,0,0.143-0.064,0.143-0.143V9.586C3.495,9.508,3.432,9.444,3.353,9.444z"/>
	<polygon class="st6" points="23.059,31.889 28.798,17.908 17.319,17.908 	"/>
	<polygon class="st7" points="22.603,12.074 14.924,12.074 17.136,17.462 	"/>
	<polygon class="st7" points="31.193,12.074 23.397,12.074 28.98,17.465 	"/>
	<polygon class="st8" points="22.998,12.138 17.472,17.585 28.64,17.585 	"/>
	<polygon class="st7" points="36.539,17.908 29.147,17.908 23.535,31.579 	"/>
	<polygon class="st8" points="36.542,17.585 31.488,12.206 29.28,17.585 	"/>
	<polygon class="st7" points="9.643,17.908 22.58,31.574 16.97,17.908 	"/>
	<polygon class="st8" points="9.638,17.585 16.837,17.585 14.63,12.208 	"/>
	<g>
		<polygon class="st9" points="17.078,17.746 23.059,32.314 29.039,17.746 		"/>
		<polygon class="st9" points="29.039,17.746 31.434,11.913 14.683,11.913 17.078,17.746 		"/>
		<polygon class="st9" points="29.039,17.746 22.997,11.913 17.078,17.746 		"/>
		<polygon class="st9" points="29.039,17.746 23.059,32.314 36.915,17.746 		"/>
		<polygon class="st9" points="36.915,17.746 31.434,11.913 29.039,17.746 		"/>
		<polygon class="st9" points="9.268,17.746 23.059,32.314 17.078,17.746 		"/>
		<polygon class="st9" points="17.078,17.746 14.683,11.913 9.268,17.746 		"/>
	</g>
	<circle class="st10" cx="7.003" cy="11.675" r="0.999"/>
	<g>
		<path class="st5" d="M7.003,12.816c-0.629,0-1.141-0.512-1.141-1.141s0.512-1.141,1.141-1.141s1.141,0.512,1.141,1.141
			S7.632,12.816,7.003,12.816z M7.003,10.819c-0.472,0-0.856,0.384-0.856,0.856c0,0.472,0.384,0.856,0.856,0.856
			c0.472,0,0.856-0.384,0.856-0.856C7.859,11.203,7.475,10.819,7.003,10.819z"/>
	</g>
	<circle class="st10" cx="7.003" cy="17.382" r="0.999"/>
	<g>
		<path class="st5" d="M7.003,18.523c-0.629,0-1.141-0.512-1.141-1.141c0-0.629,0.512-1.141,1.141-1.141s1.141,0.512,1.141,1.141
			C8.144,18.011,7.632,18.523,7.003,18.523z M7.003,16.526c-0.472,0-0.856,0.384-0.856,0.856c0,0.472,0.384,0.856,0.856,0.856
			c0.472,0,0.856-0.384,0.856-0.856C7.859,16.91,7.475,16.526,7.003,16.526z"/>
	</g>
	<circle class="st10" cx="7.003" cy="23.088" r="0.999"/>
	<g>
		<path class="st5" d="M7.003,24.23c-0.629,0-1.141-0.512-1.141-1.141s0.512-1.141,1.141-1.141s1.141,0.512,1.141,1.141
			S7.632,24.23,7.003,24.23z M7.003,22.232c-0.472,0-0.856,0.384-0.856,0.856s0.384,0.856,0.856,0.856
			c0.472,0,0.856-0.384,0.856-0.856S7.475,22.232,7.003,22.232z"/>
	</g>
	<circle class="st10" cx="7.003" cy="28.795" r="0.999"/>
	<g>
		<path class="st5" d="M7.003,29.936c-0.629,0-1.141-0.512-1.141-1.141s0.512-1.141,1.141-1.141s1.141,0.512,1.141,1.141
			S7.632,29.936,7.003,29.936z M7.003,27.939c-0.472,0-0.856,0.384-0.856,0.856s0.384,0.856,0.856,0.856
			c0.472,0,0.856-0.384,0.856-0.856S7.475,27.939,7.003,27.939z"/>
	</g>
	<path class="st11" d="M7.003,22.732c0.157,0,0.285,0.128,0.285,0.285v0.143c0,0.157-0.128,0.285-0.285,0.285H2.081
		c-0.157,0-0.285-0.128-0.285-0.285v-0.143c0-0.157,0.128-0.285,0.285-0.285H7.003z"/>
	<g>
		<path class="st5" d="M7.003,23.588H2.081c-0.236,0-0.428-0.192-0.428-0.428v-0.143c0-0.236,0.192-0.428,0.428-0.428h4.922
			c0.236,0,0.428,0.192,0.428,0.428v0.143C7.431,23.396,7.239,23.588,7.003,23.588z M2.081,22.874c-0.079,0-0.143,0.064-0.143,0.143
			v0.143c0,0.079,0.064,0.143,0.143,0.143h4.922c0.079,0,0.143-0.064,0.143-0.143v-0.143c0-0.079-0.064-0.143-0.143-0.143H2.081z"/>
	</g>
	<path class="st11" d="M7.003,17.025c0.157,0,0.285,0.128,0.285,0.285v0.143c0,0.157-0.128,0.285-0.285,0.285H2.081
		c-0.157,0-0.285-0.128-0.285-0.285V17.31c0-0.157,0.128-0.285,0.285-0.285H7.003z"/>
	<g>
		<path class="st5" d="M7.003,17.881H2.081c-0.236,0-0.428-0.192-0.428-0.428V17.31c0-0.236,0.192-0.428,0.428-0.428h4.922
			c0.236,0,0.428,0.192,0.428,0.428v0.143C7.431,17.689,7.239,17.881,7.003,17.881z M2.081,17.168c-0.079,0-0.143,0.064-0.143,0.143
			v0.143c0,0.079,0.064,0.143,0.143,0.143h4.922c0.079,0,0.143-0.064,0.143-0.143V17.31c0-0.079-0.064-0.143-0.143-0.143H2.081z"/>
	</g>
	<g>
		<g>
			<polygon class="st12" points="30.682,27.947 32.566,29.891 35.727,25.447 35.142,24.853 			"/>
			<polygon class="st13" points="35.142,24.853 35.727,25.447 37.13,23.474 			"/>
		</g>
	</g>
	<path class="st14" d="M20.235,39.757c4.564,0,8.767-1.575,12.094-4.209H8.144C11.471,38.181,15.672,39.757,20.235,39.757z"/>
	<path class="st14" d="M8.203,4.874H32.27c-3.318-2.606-7.498-4.161-12.035-4.161C15.699,0.713,11.521,2.27,8.203,4.874z"/>
	<path class="st2" d="M8.203,4.874C8.084,4.968,7.965,5.063,7.848,5.16h24.777c-0.117-0.096-0.235-0.192-0.355-0.285H8.203z"/>
	<path class="st5" d="M40.468,20.069c-0.021-2.58-0.526-5.046-1.431-7.312c-0.038-0.096-0.077-0.191-0.117-0.285
		c-1.173-2.814-2.965-5.308-5.203-7.312c-0.107-0.096-0.216-0.191-0.325-0.285C29.852,1.838,25.254,0,20.235,0
		C15.216,0,10.62,1.838,7.08,4.874C6.971,4.968,6.863,5.064,6.756,5.16C5.462,6.319,4.315,7.64,3.353,9.093
		C1.235,12.291,0,16.121,0,20.235s1.235,7.944,3.353,11.142c0.949,1.434,2.078,2.738,3.35,3.886
		c0.106,0.096,0.213,0.192,0.321,0.285c3.547,3.065,8.166,4.922,13.211,4.922c5.046,0,9.666-1.857,13.213-4.922
		c0.109-0.094,0.216-0.189,0.323-0.285c2.226-2.007,4.005-4.501,5.169-7.312c0.039-0.095,0.079-0.19,0.117-0.285
		c0.898-2.267,1.397-4.733,1.412-7.312c0-0.04,0.002-0.079,0.002-0.119C40.47,20.179,40.468,20.124,40.468,20.069z M38.286,27.666
		c-0.039,0.095-0.079,0.191-0.12,0.285c-1.232,2.852-3.124,5.354-5.484,7.312c-0.116,0.096-0.234,0.192-0.352,0.285
		c-3.328,2.634-7.531,4.209-12.094,4.209c-4.563,0-8.764-1.575-12.091-4.209c-0.119-0.094-0.238-0.188-0.355-0.285
		c-1.768-1.467-3.274-3.239-4.436-5.235c-1.677-2.88-2.639-6.226-2.639-9.793s0.962-6.912,2.639-9.793
		C4.528,8.425,6.055,6.636,7.848,5.16c0.117-0.097,0.236-0.191,0.356-0.285c3.318-2.605,7.496-4.161,12.032-4.161
		c4.537,0,8.717,1.556,12.035,4.161c0.119,0.094,0.238,0.189,0.355,0.285c2.373,1.954,4.278,4.457,5.52,7.312
		c0.041,0.095,0.082,0.19,0.122,0.285c0.939,2.256,1.466,4.725,1.488,7.312c0,0.056,0.002,0.111,0.002,0.166
		c0,0.04-0.001,0.079-0.002,0.119C39.74,22.94,39.219,25.409,38.286,27.666z"/>
	<path class="st5" d="M7.859,5.968c0,0.472-0.384,0.856-0.856,0.856c-0.259,0-0.491-0.116-0.649-0.299
		C6.287,6.593,6.221,6.661,6.155,6.73c0.209,0.233,0.511,0.38,0.848,0.38c0.629,0,1.141-0.512,1.141-1.141
		c0-0.306-0.122-0.584-0.319-0.789C7.752,5.239,7.679,5.301,7.607,5.363C7.762,5.518,7.859,5.732,7.859,5.968z"/>
	<path class="st5" d="M7.003,33.36c-0.336,0-0.637,0.146-0.846,0.378c0.066,0.069,0.132,0.137,0.198,0.205
		c0.157-0.182,0.389-0.297,0.647-0.297c0.472,0,0.856,0.384,0.856,0.856c0,0.236-0.096,0.449-0.25,0.604
		c0.061,0.052,0.119,0.106,0.18,0.157c0.012,0.01,0.024,0.019,0.036,0.029c0.197-0.205,0.319-0.483,0.319-0.79
		C8.144,33.872,7.632,33.36,7.003,33.36z"/>
	<path class="st15" d="M7.288,34.43c0-0.157-0.128-0.285-0.285-0.285H6.554c0.215,0.211,0.435,0.417,0.659,0.618
		c0.046-0.051,0.075-0.117,0.075-0.19V34.43z"/>
	<path class="st15" d="M7.288,28.866v-0.143c0-0.157-0.128-0.285-0.285-0.285H2.524c0.112,0.241,0.23,0.478,0.351,0.713h4.128
		C7.16,29.152,7.288,29.023,7.288,28.866z"/>
	<path class="st15" d="M7.288,11.746v-0.143c0-0.157-0.128-0.285-0.285-0.285H2.875c-0.121,0.235-0.239,0.473-0.351,0.713h4.479
		C7.16,12.032,7.288,11.903,7.288,11.746z"/>
	<path class="st15" d="M6.553,6.325h0.449c0.157,0,0.285-0.128,0.285-0.285V5.897c0-0.074-0.029-0.14-0.075-0.191
		C6.988,5.907,6.768,6.114,6.553,6.325z"/>
	<path class="st5" d="M7.431,34.43c0-0.236-0.192-0.428-0.428-0.428h-0.59c0.096,0.096,0.194,0.191,0.292,0.285h0.298
		c0.079,0,0.143,0.064,0.143,0.143v0.143c0,0.037-0.015,0.07-0.038,0.096c0.07,0.064,0.143,0.125,0.214,0.188
		c0.068-0.076,0.11-0.174,0.11-0.284V34.43z"/>
	<path class="st5" d="M7.431,28.866v-0.143c0-0.236-0.192-0.428-0.428-0.428H2.458c0.044,0.096,0.089,0.19,0.134,0.285h4.41
		c0.079,0,0.143,0.064,0.143,0.143v0.143c0,0.079-0.064,0.143-0.143,0.143H2.801c0.048,0.096,0.098,0.191,0.148,0.285h4.053
		C7.239,29.294,7.431,29.102,7.431,28.866z"/>
	<path class="st5" d="M7.431,11.746v-0.143c0-0.236-0.192-0.428-0.428-0.428H2.949c-0.05,0.095-0.1,0.19-0.148,0.285h4.202
		c0.079,0,0.143,0.064,0.143,0.143v0.143c0,0.079-0.064,0.143-0.143,0.143h-4.41c-0.045,0.095-0.091,0.19-0.134,0.285h4.545
		C7.239,12.174,7.431,11.982,7.431,11.746z"/>
	<path class="st5" d="M7.145,5.897V6.04c0,0.079-0.064,0.143-0.143,0.143H6.702c-0.098,0.094-0.194,0.189-0.29,0.285h0.591
		c0.236,0,0.428-0.192,0.428-0.428V5.897c0-0.11-0.043-0.209-0.111-0.285c-0.071,0.063-0.142,0.126-0.212,0.19
		C7.13,5.827,7.145,5.86,7.145,5.897z"/>
	<path class="st16" d="M22.707,39.6l9.885-9.736l-1.899-1.928L18.749,39.7c0.491,0.037,0.986,0.057,1.486,0.057
		C21.072,39.757,21.897,39.703,22.707,39.6z"/>
	<path class="st5" d="M30.692,28.138l1.699,1.725l-9.915,9.765c0.156-0.018,0.312-0.038,0.467-0.06l9.75-9.602
		c0.016-0.015,0.026-0.034,0.033-0.053c0.001-0.001,0.002-0.003,0.002-0.004l4.518-6.352c0.04-0.056,0.034-0.134-0.015-0.183
		c-0.048-0.049-0.126-0.056-0.183-0.017l-6.412,4.449c-0.016,0.007-0.03,0.017-0.043,0.029L18.56,39.685
		c0.126,0.011,0.251,0.02,0.378,0.029L30.692,28.138z M36.541,24.056l-0.832,1.169l-0.346-0.352L36.541,24.056z M35.125,25.039
		l0.416,0.423l-2.971,4.177l-1.654-1.68L35.125,25.039z"/>
	<g>
		<path class="st17" d="M52.692,22.286v7.344h-2.37v-17.6h4.974c1.114,0,2.076,0.113,2.886,0.338
			c0.811,0.226,1.48,0.551,2.008,0.977c0.528,0.426,0.919,0.939,1.173,1.541c0.253,0.602,0.38,1.275,0.38,2.021
			c0,0.623-0.098,1.204-0.294,1.744c-0.197,0.54-0.481,1.025-0.854,1.455c-0.373,0.43-0.827,0.796-1.363,1.099
			c-0.537,0.303-1.145,0.533-1.824,0.688c0.294,0.172,0.557,0.422,0.786,0.749l5.134,6.988h-2.112c-0.434,0-0.753-0.167-0.958-0.503
			l-4.569-6.288c-0.139-0.197-0.291-0.338-0.454-0.424c-0.164-0.086-0.41-0.129-0.737-0.129H52.692z M52.692,20.553h2.493
			c0.696,0,1.308-0.083,1.836-0.251c0.528-0.168,0.97-0.405,1.327-0.712c0.356-0.307,0.624-0.673,0.804-1.099
			s0.271-0.896,0.271-1.413c0-1.048-0.346-1.838-1.038-2.37s-1.721-0.798-3.089-0.798h-2.604V20.553z"/>
		<path class="st17" d="M70.411,16.992c0.909,0,1.729,0.152,2.462,0.455c0.732,0.303,1.355,0.733,1.867,1.29s0.905,1.23,1.179,2.02
			c0.274,0.791,0.411,1.672,0.411,2.647c0,0.982-0.137,1.867-0.411,2.653c-0.274,0.785-0.667,1.457-1.179,2.014
			s-1.134,0.984-1.867,1.283c-0.733,0.299-1.554,0.448-2.462,0.448s-1.73-0.149-2.462-0.448c-0.733-0.299-1.357-0.727-1.873-1.283
			s-0.913-1.229-1.191-2.014c-0.278-0.786-0.417-1.671-0.417-2.653c0-0.975,0.139-1.856,0.417-2.647
			c0.278-0.79,0.676-1.463,1.191-2.02s1.14-0.987,1.873-1.29C68.681,17.144,69.503,16.992,70.411,16.992z M70.411,28.094
			c1.228,0,2.145-0.411,2.751-1.234c0.606-0.822,0.909-1.971,0.909-3.444c0-1.482-0.303-2.637-0.909-3.464s-1.523-1.241-2.751-1.241
			c-0.623,0-1.163,0.107-1.621,0.319c-0.459,0.213-0.841,0.52-1.148,0.921s-0.537,0.895-0.688,1.48
			c-0.151,0.585-0.227,1.246-0.227,1.983c0,0.736,0.076,1.396,0.227,1.977c0.151,0.582,0.381,1.071,0.688,1.468
			c0.307,0.397,0.689,0.702,1.148,0.915C69.249,27.988,69.789,28.094,70.411,28.094z"/>
		<path class="st17" d="M82.214,22.286v7.344h-2.37v-17.6h4.974c1.114,0,2.076,0.113,2.886,0.338
			c0.811,0.226,1.48,0.551,2.008,0.977c0.528,0.426,0.919,0.939,1.173,1.541c0.253,0.602,0.38,1.275,0.38,2.021
			c0,0.623-0.098,1.204-0.294,1.744c-0.197,0.54-0.481,1.025-0.854,1.455c-0.373,0.43-0.827,0.796-1.363,1.099
			c-0.537,0.303-1.145,0.533-1.824,0.688c0.294,0.172,0.557,0.422,0.786,0.749l5.134,6.988h-2.112c-0.434,0-0.753-0.167-0.958-0.503
			l-4.569-6.288c-0.139-0.197-0.291-0.338-0.454-0.424c-0.164-0.086-0.41-0.129-0.737-0.129H82.214z M82.214,20.553h2.493
			c0.696,0,1.308-0.083,1.836-0.251c0.528-0.168,0.97-0.405,1.327-0.712c0.356-0.307,0.624-0.673,0.804-1.099
			s0.271-0.896,0.271-1.413c0-1.048-0.346-1.838-1.038-2.37s-1.721-0.798-3.089-0.798h-2.604V20.553z"/>
		<path class="st17" d="M100.059,16.98c0.541,0,1.046,0.06,1.518,0.178c0.471,0.119,0.898,0.292,1.283,0.522h3.377v0.811
			c0,0.27-0.172,0.442-0.516,0.516l-1.412,0.197c0.277,0.532,0.417,1.125,0.417,1.781c0,0.606-0.116,1.157-0.351,1.652
			c-0.232,0.495-0.557,0.919-0.97,1.271c-0.413,0.352-0.905,0.622-1.474,0.811c-0.569,0.188-1.193,0.282-1.873,0.282
			c-0.582,0-1.13-0.069-1.646-0.209c-0.262,0.17-0.46,0.352-0.596,0.546c-0.135,0.195-0.203,0.386-0.203,0.571
			c0,0.305,0.119,0.536,0.356,0.692s0.553,0.269,0.946,0.337c0.393,0.067,0.839,0.102,1.339,0.102c0.499,0,1.008,0,1.529,0
			s1.03,0.045,1.529,0.137c0.499,0.091,0.945,0.24,1.339,0.447c0.393,0.207,0.708,0.493,0.945,0.858
			c0.237,0.364,0.355,0.837,0.355,1.417c0,0.538-0.133,1.061-0.398,1.566c-0.266,0.505-0.648,0.955-1.148,1.349
			s-1.109,0.709-1.83,0.945s-1.535,0.354-2.444,0.354s-1.705-0.091-2.389-0.271c-0.684-0.181-1.251-0.423-1.701-0.726
			c-0.45-0.304-0.788-0.654-1.013-1.052s-0.337-0.813-0.337-1.247c0-0.615,0.194-1.138,0.583-1.567
			c0.389-0.431,0.923-0.773,1.603-1.027c-0.352-0.163-0.633-0.382-0.841-0.655c-0.209-0.274-0.313-0.641-0.313-1.098
			c0-0.18,0.033-0.366,0.099-0.559c0.065-0.191,0.166-0.382,0.301-0.569c0.135-0.188,0.301-0.368,0.498-0.54
			c0.196-0.172,0.425-0.323,0.688-0.454c-0.614-0.344-1.095-0.8-1.443-1.369c-0.348-0.568-0.522-1.234-0.522-1.996
			c0-0.606,0.117-1.157,0.35-1.652c0.233-0.496,0.559-0.917,0.976-1.265s0.915-0.616,1.492-0.805
			C98.738,17.074,99.371,16.98,100.059,16.98z M103.94,30.261c0-0.317-0.086-0.572-0.258-0.765c-0.172-0.191-0.405-0.34-0.699-0.444
			c-0.295-0.104-0.635-0.182-1.02-0.231s-0.791-0.075-1.217-0.075c-0.425,0-0.859,0-1.301,0c-0.442,0-0.864-0.056-1.265-0.166
			c-0.467,0.222-0.846,0.492-1.136,0.812c-0.291,0.32-0.436,0.701-0.436,1.145c0,0.278,0.072,0.539,0.215,0.781
			c0.143,0.241,0.362,0.45,0.657,0.627c0.295,0.176,0.665,0.315,1.112,0.418c0.446,0.103,0.972,0.154,1.578,0.154
			c0.589,0,1.118-0.055,1.584-0.163s0.861-0.264,1.186-0.464c0.322-0.2,0.57-0.438,0.742-0.714S103.94,30.595,103.94,30.261z
			 M100.059,23.55c0.442,0,0.833-0.062,1.173-0.185c0.34-0.122,0.624-0.294,0.854-0.516c0.229-0.221,0.401-0.485,0.517-0.792
			c0.113-0.307,0.172-0.645,0.172-1.014c0-0.761-0.232-1.367-0.694-1.817c-0.463-0.45-1.136-0.676-2.021-0.676
			c-0.876,0-1.545,0.226-2.008,0.676c-0.463,0.45-0.694,1.056-0.694,1.817c0,0.369,0.059,0.707,0.178,1.014s0.293,0.571,0.522,0.792
			c0.229,0.222,0.512,0.394,0.848,0.516C99.24,23.489,99.625,23.55,100.059,23.55z"/>
		<path class="st17" d="M117.781,29.63h-0.971c-0.213,0-0.385-0.032-0.516-0.098s-0.217-0.205-0.258-0.418l-0.246-1.154
			c-0.328,0.295-0.646,0.559-0.958,0.792s-0.639,0.43-0.982,0.59c-0.344,0.159-0.71,0.28-1.099,0.362
			c-0.39,0.081-0.822,0.122-1.297,0.122c-0.482,0-0.936-0.067-1.356-0.203c-0.422-0.135-0.788-0.339-1.099-0.609
			c-0.312-0.271-0.56-0.614-0.744-1.029c-0.184-0.415-0.275-0.906-0.275-1.473c0-0.493,0.135-0.968,0.404-1.424
			c0.271-0.456,0.707-0.86,1.309-1.214c0.602-0.353,1.39-0.643,2.364-0.868c0.974-0.227,2.165-0.339,3.573-0.339V21.69
			c0-0.973-0.207-1.708-0.619-2.207c-0.414-0.499-1.025-0.748-1.836-0.748c-0.533,0-0.981,0.067-1.346,0.203
			c-0.364,0.135-0.68,0.287-0.945,0.454c-0.267,0.168-0.496,0.319-0.688,0.455c-0.193,0.135-0.383,0.203-0.572,0.203
			c-0.146,0-0.275-0.039-0.387-0.117c-0.109-0.078-0.198-0.174-0.264-0.289l-0.393-0.7c0.688-0.663,1.428-1.158,2.223-1.486
			c0.794-0.328,1.674-0.491,2.641-0.491c0.695,0,1.314,0.115,1.854,0.344c0.54,0.229,0.995,0.549,1.363,0.958
			c0.368,0.41,0.646,0.905,0.835,1.486c0.188,0.582,0.283,1.22,0.283,1.917V29.63z M112.107,28.291c0.385,0,0.737-0.038,1.056-0.116
			c0.32-0.078,0.621-0.188,0.903-0.332c0.282-0.143,0.553-0.316,0.811-0.521s0.51-0.438,0.755-0.7v-2.566
			c-1.006,0-1.862,0.063-2.566,0.191s-1.277,0.294-1.719,0.5c-0.443,0.206-0.764,0.449-0.965,0.729
			c-0.201,0.28-0.301,0.594-0.301,0.939c0,0.329,0.053,0.613,0.16,0.853c0.105,0.238,0.249,0.434,0.43,0.586
			c0.18,0.152,0.393,0.264,0.639,0.334C111.554,28.257,111.821,28.291,112.107,28.291z"/>
		<path class="st17" d="M121.305,29.63V17.189h1.302c0.312,0,0.508,0.151,0.59,0.454l0.172,1.351
			c0.54-0.598,1.144-1.081,1.812-1.449c0.667-0.369,1.439-0.553,2.314-0.553c0.68,0,1.279,0.113,1.8,0.338s0.954,0.544,1.302,0.958
			s0.611,0.911,0.792,1.492c0.181,0.581,0.271,1.224,0.271,1.929v7.921h-2.186v-7.921c0-0.942-0.215-1.673-0.646-2.193
			c-0.43-0.52-1.087-0.78-1.972-0.78c-0.646,0-1.25,0.155-1.811,0.467c-0.562,0.311-1.079,0.732-1.555,1.265v9.162H121.305z"/>
		<path class="st17" d="M137.93,13.283c0,0.213-0.043,0.412-0.13,0.596c-0.086,0.184-0.2,0.348-0.344,0.491
			c-0.144,0.144-0.31,0.256-0.497,0.338c-0.188,0.082-0.389,0.123-0.602,0.123s-0.412-0.041-0.596-0.123
			c-0.185-0.082-0.349-0.194-0.492-0.338c-0.143-0.143-0.256-0.307-0.338-0.491c-0.081-0.184-0.122-0.383-0.122-0.596
			s0.041-0.416,0.122-0.608c0.082-0.192,0.195-0.36,0.338-0.503c0.144-0.143,0.308-0.256,0.492-0.338
			c0.184-0.082,0.383-0.123,0.596-0.123s0.413,0.042,0.602,0.123c0.188,0.082,0.354,0.195,0.497,0.338s0.258,0.311,0.344,0.503
			C137.887,12.867,137.93,13.07,137.93,13.283z M137.438,17.189V29.63h-2.186V17.189H137.438z"/>
		<path class="st17" d="M149.785,18.122c0,0.156-0.028,0.305-0.086,0.448c-0.057,0.144-0.131,0.272-0.221,0.387l-6.73,8.966h6.792
			v1.707h-9.37v-0.908c0-0.106,0.025-0.231,0.079-0.375s0.129-0.28,0.228-0.411l6.768-9.027h-6.694v-1.719h9.235V18.122z"/>
		<path class="st17" d="M157.096,16.992c0.744,0,1.433,0.125,2.062,0.375c0.631,0.25,1.176,0.61,1.634,1.081
			s0.817,1.052,1.075,1.744c0.258,0.692,0.387,1.48,0.387,2.364c0,0.344-0.037,0.573-0.111,0.688
			c-0.073,0.114-0.213,0.172-0.417,0.172h-8.278c0.018,0.786,0.123,1.47,0.32,2.051c0.196,0.581,0.467,1.066,0.811,1.455
			s0.753,0.68,1.228,0.872c0.476,0.192,1.007,0.289,1.597,0.289c0.549,0,1.021-0.063,1.418-0.19
			c0.397-0.127,0.739-0.265,1.026-0.412c0.286-0.147,0.526-0.284,0.718-0.411c0.193-0.127,0.358-0.19,0.498-0.19
			c0.18,0,0.319,0.069,0.418,0.209l0.613,0.798c-0.27,0.328-0.594,0.612-0.971,0.854c-0.376,0.242-0.779,0.44-1.209,0.596
			c-0.43,0.156-0.874,0.272-1.332,0.351c-0.459,0.077-0.914,0.116-1.363,0.116c-0.86,0-1.652-0.146-2.377-0.436
			c-0.725-0.291-1.352-0.717-1.879-1.277c-0.528-0.561-0.939-1.255-1.234-2.082c-0.295-0.826-0.442-1.776-0.442-2.849
			c0-0.868,0.134-1.679,0.399-2.433c0.266-0.753,0.648-1.406,1.148-1.958c0.499-0.553,1.109-0.987,1.83-1.302
			C155.385,17.15,156.196,16.992,157.096,16.992z M157.145,18.601c-1.057,0-1.887,0.305-2.493,0.915s-0.982,1.455-1.13,2.537h6.768
			c0-0.508-0.07-0.973-0.209-1.395c-0.14-0.421-0.344-0.786-0.614-1.093c-0.271-0.307-0.601-0.544-0.989-0.712
			S157.645,18.601,157.145,18.601z"/>
		<path class="st16" d="M164.613,28.279c0-0.213,0.039-0.413,0.117-0.602s0.184-0.353,0.318-0.491
			c0.136-0.14,0.297-0.25,0.486-0.332c0.188-0.082,0.389-0.123,0.602-0.123s0.413,0.041,0.602,0.123
			c0.188,0.082,0.352,0.192,0.491,0.332c0.14,0.139,0.247,0.303,0.325,0.491s0.117,0.389,0.117,0.602
			c0,0.221-0.039,0.424-0.117,0.607c-0.078,0.185-0.186,0.347-0.325,0.485c-0.14,0.14-0.304,0.248-0.491,0.325
			c-0.188,0.078-0.389,0.117-0.602,0.117s-0.414-0.039-0.602-0.117c-0.189-0.077-0.351-0.186-0.486-0.325
			c-0.135-0.139-0.24-0.301-0.318-0.485C164.653,28.703,164.613,28.5,164.613,28.279z"/>
		<path class="st16" d="M173.717,13.283c0,0.213-0.043,0.412-0.129,0.596s-0.201,0.348-0.344,0.491
			c-0.144,0.144-0.31,0.256-0.498,0.338c-0.188,0.082-0.389,0.123-0.602,0.123s-0.412-0.041-0.596-0.123s-0.348-0.194-0.491-0.338
			c-0.144-0.143-0.256-0.307-0.338-0.491c-0.081-0.184-0.122-0.383-0.122-0.596s0.041-0.416,0.122-0.608
			c0.082-0.192,0.194-0.36,0.338-0.503s0.308-0.256,0.491-0.338c0.184-0.082,0.383-0.123,0.596-0.123s0.414,0.042,0.602,0.123
			c0.188,0.082,0.354,0.195,0.498,0.338c0.143,0.143,0.258,0.311,0.344,0.503S173.717,13.07,173.717,13.283z M173.225,17.189V29.63
			h-2.186V17.189H173.225z"/>
		<path class="st16" d="M180.824,29.826c-0.982,0-1.737-0.273-2.266-0.822c-0.527-0.549-0.792-1.339-0.792-2.37v-7.615h-1.498
			c-0.132,0-0.241-0.039-0.332-0.117c-0.09-0.078-0.135-0.198-0.135-0.362v-0.872l2.038-0.258l0.504-3.844
			c0.017-0.123,0.07-0.223,0.16-0.301c0.09-0.078,0.204-0.117,0.344-0.117h1.105v4.287h3.561v1.584h-3.561v7.468
			c0,0.523,0.127,0.913,0.381,1.166c0.254,0.254,0.58,0.381,0.982,0.381c0.229,0,0.428-0.03,0.596-0.092s0.312-0.129,0.436-0.202
			c0.123-0.074,0.227-0.142,0.312-0.203s0.162-0.092,0.229-0.092c0.113,0,0.217,0.069,0.307,0.208l0.639,1.044
			c-0.377,0.353-0.832,0.629-1.363,0.829C181.938,29.726,181.39,29.826,180.824,29.826z"/>
	</g>
</g>
</svg>
